<?xml version="1.0" encoding="UTF-8"?>
<svg id="Layer_1" xmlns="http://www.w3.org/2000/svg" version="1.1" viewBox="-1 -24 67 20">
  <!-- Generator: Adobe Illustrator 30.1.0, SVG Export Plug-In . SVG Version: 2.1.1 Build 136)  -->
  <defs>
    <style>
      .st0 {
        fill: #fff;
      }

      .st1 {
        fill: red;
      }
    </style>
  </defs>
  <path class="st0" d="M5.47-20.33h4.39l6.2,14.94h-4.64l-3.92-9.92-2.59,6.51s2.1,0,2.1,0c.59,0,1.11.37,1.31.92l.9,2.49H-.8l6.27-14.94ZM21.23-17.23c.45,0,.94.04,1.43.16v-3.7h3.88V-6.05c-.89.4-2.81.89-4.73.89-3.48,0-6.47-1.98-6.47-5.93s2.88-6.13,5.89-6.13h0ZM21.72-8.36c.36,0,.65-.07.94-.16v-5.42c-.29-.11-.58-.16-.96-.16-1.27,0-2.45.94-2.45,2.92s1.2,2.81,2.47,2.81h0ZM33.45-17.23c3.23,0,5.98,2.18,5.98,6.02s-2.74,6.02-5.98,6.02-6-2.18-6-6.02,2.72-6.02,6-6.02ZM33.45-8.42c1.11,0,2.14-.89,2.14-2.79s-1.03-2.79-2.14-2.79-2.12.89-2.12,2.79.96,2.79,2.12,2.79ZM40.36-20.77h3.9v3.54h1.45c3.03,0,5.84,1.98,5.84,5.86,0,4.1-2.99,6.18-6.53,6.18-1.52,0-3.46-.31-4.66-.87v-14.72s0,.01,0,.01ZM45.11-8.38c1.34,0,2.56-.96,2.56-2.94,0-1.85-1.2-2.72-2.5-2.72-.36,0-.65.04-.91.16v5.35c.22.09.51.16.85.16h0ZM58.17-17.23c2.92,0,5.6,1.87,5.6,5.64v1.49s-7.36,0-7.36,0c.4,1.32,1.56,1.94,3.01,1.94,1.18,0,2.27-.29,3.5-.82,0,0,0,0,0,0v2.04c0,.6-.38,1.14-.94,1.32-.92.3-1.93.43-2.96.43-3.7,0-6.58-2.23-6.58-6.02s2.61-6.02,5.73-6.02ZM60.13-12.53c-.2-1.27-1.05-1.78-1.92-1.78s-1.58.54-1.87,1.78c0,0,3.79,0,3.79,0Z"/>
  <rect class="st0" x="48.23" y="-23.89" width="14.65" height="5.58" rx="6.37" ry="6.37"/>
  <g>
    <path class="st1" d="M51.44-19.9v-2.44h1.88v.42h-1.34v.63h1.12v.38h-1.12v1.01h-.54Z"/>
    <path class="st1" d="M54.9-21.3c-.16,0-.3.03-.43.08-.13.05-.22.13-.27.23v1.09h-.53v-1.8h.49v.38c.07-.12.16-.22.28-.3.12-.08.24-.11.36-.11.03,0,.05,0,.06,0,.01,0,.03,0,.04,0v.42Z"/>
    <path class="st1" d="M56.19-19.86c-.17,0-.32-.02-.45-.07s-.25-.12-.34-.2c-.09-.08-.17-.18-.22-.3-.05-.11-.08-.23-.08-.35s.03-.25.08-.36c.05-.11.12-.21.22-.3s.21-.15.35-.2c.14-.05.29-.08.46-.08s.32.02.45.08c.13.05.25.12.34.2.09.08.17.18.21.3s.07.23.07.35c0,.03,0,.06,0,.09,0,.03,0,.05,0,.07h-1.6c0,.07.03.13.06.19.03.06.07.1.12.14.05.04.11.07.17.09.06.02.13.03.2.03.11,0,.21-.02.3-.07.09-.04.16-.1.19-.18l.45.11c-.08.14-.2.25-.37.34-.17.09-.37.13-.6.13ZM56.72-20.95c-.01-.14-.07-.24-.17-.33-.1-.08-.22-.12-.37-.12-.07,0-.14.01-.2.03-.06.02-.12.05-.16.09-.05.04-.09.09-.12.14-.03.05-.05.12-.05.18h1.08Z"/>
    <path class="st1" d="M58.58-19.86c-.17,0-.32-.02-.45-.07s-.25-.12-.34-.2c-.09-.08-.17-.18-.22-.3-.05-.11-.08-.23-.08-.35s.03-.25.08-.36c.05-.11.12-.21.22-.3s.21-.15.35-.2c.14-.05.29-.08.46-.08s.32.02.45.08c.13.05.25.12.34.2.09.08.17.18.21.3s.07.23.07.35c0,.03,0,.06,0,.09,0,.03,0,.05,0,.07h-1.6c0,.07.03.13.06.19.03.06.07.1.12.14.05.04.11.07.17.09.06.02.13.03.2.03.11,0,.21-.02.3-.07.09-.04.16-.1.19-.18l.45.11c-.08.14-.2.25-.37.34-.17.09-.37.13-.6.13ZM59.12-20.95c-.01-.14-.07-.24-.17-.33-.1-.08-.22-.12-.37-.12-.07,0-.14.01-.2.03-.06.02-.12.05-.16.09-.05.04-.09.09-.12.14-.03.05-.05.12-.05.18h1.08Z"/>
  </g>
</svg>
